<svg width="51" height="51" viewBox="0 0 51 51" fill="none" xmlns="http://www.w3.org/2000/svg">
<g clip-path="url(#clip0)">
<path d="M50.3671 26.6427C50.3671 38.9836 40.3621 48.9879 28.0197 48.9879C15.6766 48.9879 5.67231 38.9836 5.67231 26.6427C5.67231 14.3018 15.6766 4.29828 28.0197 4.29828C40.3621 4.29828 50.3671 14.3018 50.3671 26.6427Z" fill="#FFB400"/>
<path d="M36.2319 33.7772H12.4651C11.8502 33.7772 11.3511 33.2781 11.3511 32.6631C11.3511 32.0474 11.8502 31.549 12.4651 31.549H36.2319C36.8468 31.549 37.3459 32.0474 37.3459 32.6631C37.3459 33.2781 36.8468 33.7772 36.2319 33.7772Z" fill="#333333"/>
<path d="M36.2319 19.6672H29.5475C28.9325 19.6672 28.4334 19.1688 28.4334 18.5531C28.4334 17.9382 28.9325 17.4391 29.5475 17.4391H36.2319C36.8468 17.4391 37.3459 17.9382 37.3459 18.5531C37.3459 19.1688 36.8468 19.6672 36.2319 19.6672Z" fill="#333333"/>
<path d="M19.8922 19.6672H12.4651C11.8502 19.6672 11.3511 19.1688 11.3511 18.5531C11.3511 17.9382 11.8502 17.4391 12.4651 17.4391H19.8922C20.5072 17.4391 21.0063 17.9382 21.0063 18.5531C21.0063 19.1688 20.5072 19.6672 19.8922 19.6672Z" fill="#333333"/>
<path d="M23.8293 48.0068C10.8921 48.0068 0.36713 37.4833 0.36713 24.5483C0.36713 11.6125 10.8921 1.08902 23.8293 1.08902C36.7666 1.08902 47.2916 11.6125 47.2916 24.5483C47.2916 37.4833 36.7666 48.0068 23.8293 48.0068ZM23.8293 3.31715C12.1205 3.31715 2.59526 12.8409 2.59526 24.5483C2.59526 36.2549 12.1205 45.7794 23.8293 45.7794C35.5382 45.7794 45.0634 36.2549 45.0634 24.5483C45.0634 12.8409 35.5382 3.31715 23.8293 3.31715Z" fill="#333333"/>
</g>
<defs>
<clipPath id="clip0">
<rect width="50" height="50" fill="white" transform="translate(0.367126 0.0380859)"/>
</clipPath>
</defs>
</svg>
