<svg width="51" height="51" viewBox="0 0 51 51" fill="none" xmlns="http://www.w3.org/2000/svg">
<g clip-path="url(#clip0)">
<path d="M50.5764 26.6888C50.5764 39.3842 40.2832 49.6759 27.5862 49.6759C14.8893 49.6759 4.59683 39.3842 4.59683 26.6888C4.59683 13.9934 14.8893 3.70169 27.5862 3.70169C40.2832 3.70169 50.5764 13.9934 50.5764 26.6888Z" fill="#FFB400"/>
<path d="M35.4529 18.2041C35.4529 19.7398 34.2083 20.9845 32.6725 20.9845C31.136 20.9845 29.8906 19.7398 29.8906 18.2041C29.8906 16.6684 31.136 15.4237 32.6725 15.4237C34.2083 15.4237 35.4529 16.6684 35.4529 18.2041Z" fill="#333333"/>
<path d="M19.4621 18.2041C19.4621 19.7398 18.2175 20.9845 16.681 20.9845C15.1453 20.9845 13.8999 19.7398 13.8999 18.2041C13.8999 16.6684 15.1453 15.4237 16.681 15.4237C18.2175 15.4237 19.4621 16.6684 19.4621 18.2041Z" fill="#333333"/>
<path d="M26.8398 38.8035H22.9775C18.0853 38.8035 14.1062 34.8725 14.1062 30.0407C14.1062 29.4073 14.6188 28.8946 15.2522 28.8946C15.8849 28.8946 16.3983 29.4073 16.3983 30.0407C16.3983 33.6692 19.2879 36.5114 22.9775 36.5114H26.8398C30.5286 36.5114 33.419 33.7165 33.419 30.1477C33.419 29.5143 33.9317 29.0016 34.565 29.0016C35.1977 29.0016 35.7111 29.5143 35.7111 30.1477C35.7111 35.0017 31.8145 38.8035 26.8398 38.8035Z" fill="#333333"/>
<path d="M24.7127 48.6666C11.4037 48.6666 0.576416 37.8409 0.576416 24.5335C0.576416 11.2268 11.4037 0.401031 24.7127 0.401031C38.0208 0.401031 48.8489 11.2268 48.8489 24.5335C48.8489 37.8409 38.0208 48.6666 24.7127 48.6666ZM24.7127 2.69317C12.6675 2.69317 2.86856 12.4905 2.86856 24.5335C2.86856 36.5771 12.6675 46.3753 24.7127 46.3753C36.7571 46.3753 46.5568 36.5771 46.5568 24.5335C46.5568 12.4905 36.7571 2.69317 24.7127 2.69317Z" fill="#333333"/>
</g>
<defs>
<clipPath id="clip0">
<rect width="50" height="50" fill="white" transform="translate(0.576416 0.0380859)"/>
</clipPath>
</defs>
</svg>
