<svg width="51" height="51" viewBox="0 0 51 51" fill="none" xmlns="http://www.w3.org/2000/svg">
<g clip-path="url(#clip0)">
<path d="M45.2479 15.0815C49.1638 14.3535 49.2832 2.7771 49.2832 2.7771L40.2326 10.2771C36.7121 7.84199 32.4434 6.41238 27.8398 6.41238C23.078 6.41238 18.6768 7.942 15.0903 10.5299L5.73428 2.7771C5.73428 2.7771 5.86841 15.5924 10.4193 15.0963C7.66085 18.7486 6.02346 23.2956 6.02346 28.2256C6.02346 40.2719 15.7912 50.038 27.8398 50.038C39.8876 50.038 49.6546 40.2719 49.6546 28.2256C49.6546 23.2886 48.0125 18.7362 45.2479 15.0815Z" fill="#FC440F"/>
<path d="M23.9006 49.6256C11.2302 49.6256 0.922141 39.3191 0.922141 26.6503C0.922141 22.1978 2.17344 17.9447 4.55587 14.2466C0.950051 12.1285 0.65312 3.19499 0.632187 1.21416C0.627536 0.761397 0.886479 0.346623 1.29505 0.152028C1.70285 -0.0441172 2.18895 0.0171297 2.53705 0.306308L11.2147 7.49701C14.9826 4.99286 19.3489 3.67412 23.9006 3.67412C28.2941 3.67412 32.5333 4.90913 36.2167 7.25513L44.6021 0.306308C44.951 0.0171297 45.4339 -0.0441172 45.8441 0.152028C46.2526 0.346623 46.5116 0.760621 46.5069 1.21416C46.4883 3.05002 46.2232 11.3432 43.0376 13.931C45.5549 17.702 46.8791 22.0707 46.8791 26.6503C46.8791 39.3191 36.571 49.6256 23.9006 49.6256ZM6.48088 12.358C6.89566 12.358 7.2833 12.5805 7.49107 12.9464C7.72055 13.3504 7.68799 13.8512 7.40812 14.221C4.68689 17.826 3.24798 22.1242 3.24798 26.6503C3.24798 38.0368 12.5125 47.3006 23.9006 47.3006C35.2879 47.3006 44.5532 38.0368 44.5532 26.6503C44.5532 22.1172 43.1104 17.8152 40.3815 14.207C40.138 13.8861 40.0791 13.462 40.2249 13.086C40.3698 12.71 40.7001 12.4363 41.0963 12.3627C42.6817 12.0681 43.7043 7.77379 44.0508 3.78343L37.0354 9.59647C36.6345 9.92983 36.0601 9.95387 35.6321 9.65771C32.172 7.26443 28.1158 5.99995 23.9006 5.99995C19.5381 5.99995 15.3656 7.34738 11.8319 9.89727C11.4023 10.2074 10.817 10.188 10.4092 9.84998L3.08749 3.78265C3.44645 7.95908 4.53416 12.372 6.22582 12.372C6.26768 12.372 6.31032 12.3696 6.35451 12.365C6.39638 12.3603 6.43824 12.358 6.48088 12.358Z" fill="#333333"/>
<path d="M12.6521 40.7464C12.0102 40.7464 11.4892 40.2261 11.4892 39.5834C11.4892 33.7022 16.2253 28.7334 21.8321 28.7334H26.4218C32.0278 28.7334 36.7648 33.5859 36.7648 39.3299C36.7648 39.9719 36.2438 40.4928 35.6019 40.4928C34.9592 40.4928 34.4389 39.9719 34.4389 39.3299C34.4389 34.8465 30.7672 31.0593 26.4218 31.0593H21.8321C17.5611 31.0593 13.815 35.0426 13.815 39.5834C13.815 40.2261 13.2948 40.7464 12.6521 40.7464Z" fill="#333333"/>
<path d="M18.1372 19.5968C17.9449 19.5968 17.7511 19.5495 17.5728 19.4502L15.5966 18.3501C15.4105 18.3145 15.2206 18.2935 15.0291 18.2896C14.1631 18.2772 13.3716 18.5819 12.7901 19.1634C12.3358 19.6177 11.6 19.6177 11.1457 19.1634C10.6914 18.7091 10.6914 17.9726 11.1457 17.519C11.5256 17.1399 11.9528 16.8251 12.4172 16.5802L11.4024 16.0158C10.8411 15.7033 10.6395 14.9955 10.9519 14.4342C11.2644 13.8737 11.9714 13.6713 12.5335 13.9838L16.4362 16.1561C17.386 16.4088 18.255 16.9058 18.9605 17.6121C19.3707 18.0222 19.4156 18.6719 19.0668 19.1347C18.8396 19.4347 18.4923 19.5968 18.1372 19.5968Z" fill="#333333"/>
<path d="M29.319 19.5968C28.9639 19.5968 28.6166 19.4347 28.3895 19.1347C28.0406 18.6719 28.0855 18.0222 28.4957 17.6121C29.2019 16.9058 30.0703 16.4088 31.02 16.1561L34.9227 13.9838C35.4848 13.6729 36.1918 13.8737 36.5043 14.4342C36.8167 14.9955 36.6151 15.7033 36.0538 16.0158L35.039 16.5802C35.5034 16.8252 35.9313 17.1399 36.3105 17.519C36.7648 17.9733 36.7648 18.7091 36.3105 19.1634C35.8561 19.6177 35.1196 19.6177 34.6661 19.1634C34.0839 18.5819 33.2877 18.278 32.4271 18.2897C32.2356 18.2935 32.0457 18.3145 31.8588 18.3501L29.8834 19.4502C29.7051 19.5495 29.5113 19.5968 29.319 19.5968Z" fill="#333333"/>
</g>
<defs>
<clipPath id="clip0">
<rect width="50" height="50" fill="white" transform="translate(0.143768 0.0380859)"/>
</clipPath>
</defs>
</svg>
