<svg width="51" height="51" viewBox="0 0 51 51" fill="none" xmlns="http://www.w3.org/2000/svg">
<g clip-path="url(#clip0)">
<path d="M50.0796 26.6651C50.0796 39.1809 39.9327 49.327 27.4154 49.327C14.8973 49.327 4.75043 39.1809 4.75043 26.6651C4.75043 14.1492 14.8973 4.00311 27.4154 4.00311C39.9327 4.00311 50.0796 14.1492 50.0796 26.6651Z" fill="#FFB400"/>
<path d="M39.0703 33.3372C39.0703 38.6092 34.947 42.3746 29.8612 42.3746H25.2559C20.17 42.3746 16.0475 38.6092 16.0475 33.3372H39.0703Z" fill="#8F3985"/>
<path d="M40.3222 22.6179C40.3222 24.8475 38.5144 26.656 36.284 26.656C34.0537 26.656 32.2459 24.8475 32.2459 22.6179C32.2459 20.3875 34.0537 18.5798 36.284 18.5798C38.5144 18.5798 40.3222 20.3875 40.3222 22.6179Z" fill="white"/>
<path d="M23.8458 22.6179C23.8458 24.8475 22.038 26.656 19.8077 26.656C17.5774 26.656 15.7688 24.8475 15.7688 22.6179C15.7688 20.3875 17.5774 18.5798 19.8077 18.5798C22.038 18.5798 23.8458 20.3875 23.8458 22.6179Z" fill="white"/>
<path d="M33.9603 18.7289C33.9603 20.3755 32.6255 21.711 30.9782 21.711C29.3316 21.711 27.9961 20.3755 27.9961 18.7289C27.9961 17.0823 29.3316 15.7469 30.9782 15.7469C32.6255 15.7469 33.9603 17.0823 33.9603 18.7289Z" fill="#333333"/>
<path d="M32.0343 25.661C29.1847 25.661 26.8663 23.3425 26.8663 20.493C26.8663 17.6443 29.1847 15.3258 32.0343 15.3258C34.8838 15.3258 37.2022 17.6443 37.2022 20.493C37.2022 23.3425 34.8838 25.661 32.0343 25.661ZM32.0343 17.5855C30.4306 17.5855 29.126 18.8901 29.126 20.493C29.126 22.0967 30.4306 23.4013 32.0343 23.4013C33.6379 23.4013 34.9425 22.0967 34.9425 20.493C34.9425 18.8901 33.6379 17.5855 32.0343 17.5855Z" fill="#333333"/>
<path d="M15.5579 25.661C12.7084 25.661 10.3899 23.3425 10.3899 20.493C10.3899 17.6443 12.7084 15.3258 15.5579 15.3258C18.4074 15.3258 20.7259 17.6443 20.7259 20.493C20.7259 23.3425 18.4074 25.661 15.5579 25.661ZM15.5579 17.5855C13.9542 17.5855 12.6496 18.8901 12.6496 20.493C12.6496 22.0967 13.9542 23.4013 15.5579 23.4013C17.1615 23.4013 18.4661 22.0967 18.4661 20.493C18.4661 18.8901 17.1615 17.5855 15.5579 17.5855Z" fill="#333333"/>
<path d="M17.4839 18.7289C17.4839 20.3755 16.1484 21.711 14.5018 21.711C12.8545 21.711 11.5198 20.3755 11.5198 18.7289C11.5198 17.0823 12.8545 15.7469 14.5018 15.7469C16.1484 15.7469 17.4839 17.0823 17.4839 18.7289Z" fill="#333333"/>
<path d="M23.8737 48.332C10.7537 48.332 0.0795898 37.6593 0.0795898 24.5402C0.0795898 11.4218 10.7537 0.749115 23.8737 0.749115C36.9936 0.749115 47.6685 11.4218 47.6685 24.5402C47.6685 37.6593 36.9936 48.332 23.8737 48.332ZM23.8737 3.00808C11.9996 3.00808 2.33931 12.6676 2.33931 24.5402C2.33931 36.4135 11.9996 46.073 23.8737 46.073C35.7485 46.073 45.4088 36.4135 45.4088 24.5402C45.4088 12.6676 35.7485 3.00808 23.8737 3.00808Z" fill="#333333"/>
<path d="M25.6114 40.8681H21.0068C15.3063 40.8681 10.6679 36.6455 10.6679 31.4541C10.6679 30.8297 11.1741 30.3243 11.7977 30.3243H34.8205C35.4442 30.3243 35.9503 30.8297 35.9503 31.4541C35.9503 36.6455 31.3127 40.8681 25.6114 40.8681ZM13.0285 32.584C13.6417 35.9939 16.986 38.6091 21.0068 38.6091H25.6114C29.6322 38.6091 32.9766 35.9939 33.5897 32.584H13.0285Z" fill="#333333"/>
</g>
<defs>
<clipPath id="clip0">
<rect width="50" height="50" fill="white" transform="translate(0.0795898 0.0380859)"/>
</clipPath>
</defs>
</svg>
