<svg width="51" height="51" viewBox="0 0 51 51" fill="none" xmlns="http://www.w3.org/2000/svg">
<g clip-path="url(#clip0)">
<path d="M50.2978 27.0277C50.2978 39.5386 40.1537 49.6812 27.6413 49.6812C15.1281 49.6812 4.98472 39.5386 4.98472 27.0277C4.98472 14.516 15.1281 4.37344 27.6413 4.37344C40.1537 4.37344 50.2978 14.516 50.2978 27.0277Z" fill="#FFB400"/>
<path d="M27.075 36.8959H22.9498C17.6806 36.8959 13.5531 32.8365 13.5531 27.6536C13.5531 27.02 14.0666 26.5073 14.6994 26.5073C15.3329 26.5073 15.8457 27.02 15.8457 27.6536C15.8457 31.5511 18.966 34.6041 22.9498 34.6041H27.075C31.0588 34.6041 34.1791 31.6183 34.1791 27.8072C34.1791 27.1737 34.6919 26.6609 35.3254 26.6609C35.9589 26.6609 36.4717 27.1737 36.4717 27.8072C36.4717 32.9045 32.3442 36.8959 27.075 36.8959Z" fill="#333333"/>
<path d="M19.6301 17.8274C19.3374 17.8274 19.0439 17.7158 18.82 17.4919C17.7333 16.4059 15.9359 16.367 14.8958 17.4078C14.4479 17.8556 13.7219 17.8556 13.2741 17.4078C12.8263 16.9608 12.8263 16.2348 13.2741 15.7877C15.1946 13.8672 18.4761 13.9062 20.4409 15.871C20.8887 16.3181 20.8887 17.0441 20.4409 17.4919C20.217 17.7158 19.9235 17.8274 19.6301 17.8274Z" fill="#333333"/>
<path d="M35.2238 17.8274C34.9303 17.8274 34.6369 17.7158 34.4129 17.4919C33.3278 16.4059 31.5296 16.367 30.4887 17.4078C30.0409 17.8556 29.3157 17.8556 28.8678 17.4078C28.42 16.9608 28.42 16.2348 28.8678 15.7877C30.7875 13.8672 34.0691 13.9062 36.0338 15.871C36.4817 16.3181 36.4817 17.0441 36.0338 17.4919C35.8099 17.7158 35.5165 17.8274 35.2238 17.8274Z" fill="#333333"/>
<path d="M24.1007 47.9953C10.9761 47.9953 0.297829 37.3185 0.297829 24.1955C0.297829 11.0725 10.9761 0.395721 24.1007 0.395721C37.226 0.395721 47.9036 11.0725 47.9036 24.1955C47.9036 37.3185 37.226 47.9953 24.1007 47.9953ZM24.1007 2.68835C12.2401 2.68835 2.59046 12.3357 2.59046 24.1955C2.59046 36.0553 12.2401 45.7035 24.1007 45.7035C35.962 45.7035 45.6109 36.0553 45.6109 24.1955C45.6109 12.3357 35.962 2.68835 24.1007 2.68835Z" fill="#333333"/>
</g>
<defs>
<clipPath id="clip0">
<rect width="50" height="50" fill="white" transform="translate(0.297821 0.0380859)"/>
</clipPath>
</defs>
</svg>
