<svg width="50" height="50" viewBox="0 0 50 50" fill="none" xmlns="http://www.w3.org/2000/svg">
<path d="M50 26.6655C50 39.1811 39.8525 49.3263 27.3354 49.3263C14.8182 49.3263 4.67151 39.1811 4.67151 26.6655C4.67151 14.1498 14.8182 4.00385 27.3354 4.00385C39.8525 4.00385 50 14.1498 50 26.6655Z" fill="#FFB400"/>
<path d="M40.8988 21.319C40.8988 23.889 38.8146 25.9724 36.2438 25.9724C33.673 25.9724 31.5889 23.889 31.5889 21.319C31.5889 18.7482 33.673 16.6641 36.2438 16.6641C38.8146 16.6641 40.8988 18.7482 40.8988 21.319Z" fill="white"/>
<path d="M23.2951 21.319C23.2951 23.889 21.2109 25.9724 18.6401 25.9724C16.0694 25.9724 13.9852 23.889 13.9852 21.319C13.9852 18.7482 16.0694 16.6641 18.6401 16.6641C21.2109 16.6641 23.2951 18.7482 23.2951 21.319Z" fill="white"/>
<path d="M33.4109 24.9782C30.221 24.9782 27.6261 22.3833 27.6261 19.1941C27.6261 16.005 30.221 13.4101 33.4109 13.4101C36.6001 13.4101 39.1957 16.005 39.1957 19.1941C39.1957 22.3833 36.6001 24.9782 33.4109 24.9782ZM33.4109 15.669C31.4668 15.669 29.8858 17.25 29.8858 19.1941C29.8858 21.1375 31.4668 22.7185 33.4109 22.7185C35.355 22.7185 36.936 21.1375 36.936 19.1941C36.936 17.25 35.355 15.669 33.4109 15.669Z" fill="#333333"/>
<path d="M15.8072 24.9782C12.6173 24.9782 10.0217 22.3833 10.0217 19.1941C10.0217 16.005 12.6173 13.4101 15.8072 13.4101C18.9964 13.4101 21.592 16.005 21.592 19.1941C21.592 22.3833 18.9964 24.9782 15.8072 24.9782ZM15.8072 15.669C13.8632 15.669 12.2814 17.25 12.2814 19.1941C12.2814 21.1375 13.8632 22.7185 15.8072 22.7185C17.7506 22.7185 19.3323 21.1375 19.3323 19.1941C19.3323 17.25 17.7506 15.669 15.8072 15.669Z" fill="#333333"/>
<path d="M18.6597 38.6628C18.5294 38.6628 18.3976 38.641 18.2688 38.5935C17.6835 38.3773 17.3838 37.728 17.5992 37.1428C18.836 33.7872 20.8365 31.5252 23.5474 30.418C28.2784 28.4867 33.3763 30.8541 33.5917 30.9558C34.1551 31.2232 34.3962 31.8966 34.1288 32.4607C33.8621 33.0241 33.188 33.2644 32.6261 32.9985C32.553 32.9646 28.1745 30.9603 24.3895 32.515C22.2963 33.3736 20.7258 35.1942 19.7195 37.9239C19.5515 38.3803 19.1192 38.6628 18.6597 38.6628Z" fill="#333333"/>
<path d="M35.4861 18.914C35.4861 20.214 34.4315 21.2693 33.1307 21.2693C31.8291 21.2693 30.7746 20.214 30.7746 18.914C30.7746 17.6131 31.8291 16.5579 33.1307 16.5579C34.4315 16.5579 35.4861 17.6131 35.4861 18.914Z" fill="#333333"/>
<path d="M17.8816 18.914C17.8816 20.214 16.8271 21.2693 15.5263 21.2693C14.2254 21.2693 13.1709 20.214 13.1709 18.914C13.1709 17.6131 14.2254 16.5579 15.5263 16.5579C16.8271 16.5579 17.8816 17.6131 17.8816 18.914Z" fill="#333333"/>
<path d="M23.7945 48.3328C10.6747 48.3328 0 37.6595 0 24.5406C0 11.4223 10.6747 0.749115 23.7945 0.749115C36.9142 0.749115 47.5882 11.4223 47.5882 24.5406C47.5882 37.6595 36.9142 48.3328 23.7945 48.3328ZM23.7945 3.0088C11.9198 3.0088 2.25968 12.6682 2.25968 24.5406C2.25968 36.4137 11.9198 46.0723 23.7945 46.0723C35.6683 46.0723 45.3285 36.4137 45.3285 24.5406C45.3285 12.6682 35.6683 3.0088 23.7945 3.0088Z" fill="#333333"/>
</svg>
