<svg width="21" height="18" viewBox="0 0 21 18" fill="none" xmlns="http://www.w3.org/2000/svg">
<path d="M19 9.94228C18.7348 9.94228 18.4804 10.0476 18.2929 10.2352C18.1054 10.4227 18 10.6771 18 10.9423V14.9423C18 15.2075 17.8946 15.4618 17.7071 15.6494C17.5196 15.8369 17.2652 15.9423 17 15.9423H3C2.73478 15.9423 2.48043 15.8369 2.29289 15.6494C2.10536 15.4618 2 15.2075 2 14.9423V5.35228L7.88 11.2423C8.44125 11.7989 9.19951 12.1116 9.99 12.1123C10.3903 12.1133 10.7867 12.0342 11.156 11.8796C11.5252 11.725 11.8598 11.4981 12.14 11.2123L13.03 10.3323C13.1669 10.1392 13.2309 9.90372 13.2106 9.66786C13.1902 9.43199 13.0869 9.21099 12.9188 9.04419C12.7508 8.87739 12.5291 8.7756 12.2931 8.75694C12.0571 8.73828 11.8221 8.80395 11.63 8.94228L10.7 9.85228C10.5131 10.0355 10.2618 10.1381 10 10.1381C9.73825 10.1381 9.48693 10.0355 9.3 9.85228L3.41 3.94228H8C8.26522 3.94228 8.51957 3.83692 8.70711 3.64938C8.89464 3.46185 9 3.20749 9 2.94228C9 2.67706 8.89464 2.42271 8.70711 2.23517C8.51957 2.04763 8.26522 1.94228 8 1.94228H3C2.20435 1.94228 1.44129 2.25835 0.87868 2.82096C0.316071 3.38356 0 4.14663 0 4.94228V14.9423C0 15.7379 0.316071 16.501 0.87868 17.0636C1.44129 17.6262 2.20435 17.9423 3 17.9423H17C17.7956 17.9423 18.5587 17.6262 19.1213 17.0636C19.6839 16.501 20 15.7379 20 14.9423V10.9423C20 10.6771 19.8946 10.4227 19.7071 10.2352C19.5196 10.0476 19.2652 9.94228 19 9.94228ZM20.05 0.942276C19.5433 0.45379 18.8949 0.138402 18.1978 0.0413846C17.5007 -0.0556329 16.7908 0.0707095 16.17 0.402276C15.4859 0.026032 14.6892 -0.091367 13.9256 0.0715507C13.1621 0.234468 12.4827 0.666814 12.0117 1.28951C11.5408 1.91221 11.3097 2.68364 11.3608 3.46271C11.4119 4.24179 11.7417 4.97643 12.29 5.53228L15.5 8.65228C15.6916 8.83501 15.9452 8.93859 16.21 8.94228C16.3416 8.94304 16.4721 8.91781 16.5939 8.86805C16.7157 8.81828 16.8266 8.74496 16.92 8.65228L20.09 5.48228C20.6748 4.8688 20.9977 4.05169 20.9902 3.20417C20.9828 2.35665 20.6455 1.54535 20.05 0.942276ZM18.64 4.06228L16.17 6.53228L13.71 4.06228C13.5944 3.94474 13.5032 3.8056 13.4414 3.65279C13.3796 3.49998 13.3485 3.33649 13.3499 3.17167C13.3527 2.83879 13.4876 2.52067 13.725 2.28728C13.9624 2.05388 14.2827 1.92435 14.6156 1.92716C14.9485 1.92997 15.2666 2.06491 15.5 2.30228C15.593 2.396 15.7036 2.4704 15.8254 2.52117C15.9473 2.57194 16.078 2.59807 16.21 2.59807C16.342 2.59807 16.4727 2.57194 16.5946 2.52117C16.7164 2.4704 16.827 2.396 16.92 2.30228C17.1577 2.07722 17.4726 1.95179 17.8 1.95179C18.1274 1.95179 18.4423 2.07722 18.68 2.30228C18.9044 2.54281 19.0258 2.86156 19.0184 3.19042C19.0109 3.51929 18.8751 3.83219 18.64 4.06228Z" fill="#4C6072"/>
</svg>
