<svg width="20" height="18" viewBox="0 0 20 18" fill="none" xmlns="http://www.w3.org/2000/svg">
<path d="M12.012 7.82907H11.012V6.82907C11.012 6.56386 10.9066 6.3095 10.7191 6.12196C10.5316 5.93443 10.2772 5.82907 10.012 5.82907C9.74678 5.82907 9.49242 5.93443 9.30489 6.12196C9.11735 6.3095 9.01199 6.56386 9.01199 6.82907V7.82907H8.01199C7.74678 7.82907 7.49242 7.93443 7.30489 8.12196C7.11735 8.3095 7.01199 8.56385 7.01199 8.82907C7.01199 9.09429 7.11735 9.34864 7.30489 9.53618C7.49242 9.72371 7.74678 9.82907 8.01199 9.82907H9.01199V10.8291C9.01199 11.0943 9.11735 11.3486 9.30489 11.5362C9.49242 11.7237 9.74678 11.8291 10.012 11.8291C10.2772 11.8291 10.5316 11.7237 10.7191 11.5362C10.9066 11.3486 11.012 11.0943 11.012 10.8291V9.82907H12.012C12.2772 9.82907 12.5316 9.72371 12.7191 9.53618C12.9066 9.34864 13.012 9.09429 13.012 8.82907C13.012 8.56385 12.9066 8.3095 12.7191 8.12196C12.5316 7.93443 12.2772 7.82907 12.012 7.82907ZM18.172 1.82907C17.1057 0.773775 15.6973 0.134342 14.201 0.0261535C12.7047 -0.0820353 11.219 0.348145 10.012 1.23907C8.73965 0.292709 7.15599 -0.136417 5.57991 0.038109C4.00384 0.212635 2.55243 0.977849 1.51797 2.17966C0.483501 3.38146 -0.0571834 4.93059 0.00479541 6.51509C0.0667742 8.09958 0.726812 9.60174 1.85199 10.7191L7.85199 16.7691C8.4145 17.3309 9.17699 17.6464 9.97199 17.6464C10.767 17.6464 11.5295 17.3309 12.092 16.7691L18.092 10.7191C18.6829 10.1417 19.1539 9.45327 19.4779 8.69331C19.802 7.93334 19.9726 7.11683 19.98 6.2907C19.9874 5.46458 19.8315 4.64513 19.5213 3.87945C19.211 3.11377 18.7524 2.41696 18.172 1.82907ZM16.762 9.28907L10.762 15.2891C10.669 15.3828 10.5584 15.4572 10.4366 15.508C10.3147 15.5587 10.184 15.5849 10.052 15.5849C9.91998 15.5849 9.78928 15.5587 9.66742 15.508C9.54556 15.4572 9.43496 15.3828 9.34199 15.2891L3.34199 9.28907C2.55775 8.48742 2.1186 7.41054 2.1186 6.28907C2.1186 5.16761 2.55775 4.09073 3.34199 3.28907C4.14115 2.50006 5.21897 2.05764 6.34199 2.05764C7.46502 2.05764 8.54284 2.50006 9.34199 3.28907C9.43496 3.3828 9.54556 3.45719 9.66742 3.50796C9.78928 3.55873 9.91998 3.58487 10.052 3.58487C10.184 3.58487 10.3147 3.55873 10.4366 3.50796C10.5584 3.45719 10.669 3.3828 10.762 3.28907C11.5611 2.50006 12.639 2.05764 13.762 2.05764C14.885 2.05764 15.9628 2.50006 16.762 3.28907C17.5523 4.09162 17.9952 5.17276 17.9952 6.29907C17.9952 7.42539 17.5523 8.50653 16.762 9.30907V9.28907Z" fill="#4C6072"/>
</svg>
