<svg width="17" height="20" viewBox="0 0 17 20" fill="none" xmlns="http://www.w3.org/2000/svg">
<path d="M16.6277 15.49L11.5177 6.73V2H12.5177C12.7829 2 13.0373 1.89464 13.2248 1.70711C13.4124 1.51957 13.5177 1.26522 13.5177 1C13.5177 0.734784 13.4124 0.48043 13.2248 0.292893C13.0373 0.105357 12.7829 0 12.5177 0H4.51772C4.25251 0 3.99815 0.105357 3.81062 0.292893C3.62308 0.48043 3.51772 0.734784 3.51772 1C3.51772 1.26522 3.62308 1.51957 3.81062 1.70711C3.99815 1.89464 4.25251 2 4.51772 2H5.51772V6.73L0.407724 15.49C0.142267 15.9457 0.00163858 16.4634 1.4233e-05 16.9908C-0.00161011 17.5182 0.135827 18.0367 0.398471 18.494C0.661116 18.9514 1.03969 19.3314 1.49602 19.5958C1.95235 19.8602 2.47033 19.9996 2.99772 20H13.9977C14.5251 19.9996 15.0431 19.8602 15.4994 19.5958C15.9558 19.3314 16.3343 18.9514 16.597 18.494C16.8596 18.0367 16.9971 17.5182 16.9954 16.9908C16.9938 16.4634 16.8532 15.9457 16.5877 15.49H16.6277ZM7.37772 7.49C7.46592 7.3415 7.51416 7.17268 7.51772 7V2H9.51772V7C9.51955 7.17609 9.56785 7.34857 9.65772 7.5L10.5177 9H6.51772L7.37772 7.49ZM14.8977 17.49C14.8105 17.6411 14.6852 17.7668 14.5343 17.8545C14.3834 17.9422 14.2122 17.9889 14.0377 17.99H3.03772C2.86321 17.9889 2.69201 17.9422 2.54114 17.8545C2.39027 17.7668 2.26498 17.6411 2.17772 17.49C2.08996 17.338 2.04375 17.1655 2.04375 16.99C2.04375 16.8145 2.08996 16.642 2.17772 16.49L5.34772 11H11.6977L14.8977 16.5C14.9855 16.652 15.0317 16.8245 15.0317 17C15.0317 17.1755 14.9855 17.348 14.8977 17.5V17.49ZM6.51772 13C6.31994 13 6.1266 13.0586 5.96215 13.1685C5.7977 13.2784 5.66953 13.4346 5.59384 13.6173C5.51816 13.8 5.49835 14.0011 5.53694 14.1951C5.57552 14.3891 5.67076 14.5673 5.81062 14.7071C5.95047 14.847 6.12865 14.9422 6.32263 14.9808C6.51661 15.0194 6.71768 14.9996 6.90041 14.9239C7.08313 14.8482 7.23931 14.72 7.34919 14.5556C7.45907 14.3911 7.51772 14.1978 7.51772 14C7.51772 13.7348 7.41237 13.4804 7.22483 13.2929C7.03729 13.1054 6.78294 13 6.51772 13ZM10.5177 14C10.3199 14 10.1266 14.0586 9.96215 14.1685C9.7977 14.2784 9.66953 14.4346 9.59384 14.6173C9.51816 14.8 9.49835 15.0011 9.53694 15.1951C9.57552 15.3891 9.67076 15.5673 9.81062 15.7071C9.95047 15.847 10.1287 15.9422 10.3226 15.9808C10.5166 16.0194 10.7177 15.9996 10.9004 15.9239C11.0831 15.8482 11.2393 15.72 11.3492 15.5556C11.4591 15.3911 11.5177 15.1978 11.5177 15C11.5177 14.7348 11.4124 14.4804 11.2248 14.2929C11.0373 14.1054 10.7829 14 10.5177 14Z" fill="#4C6072"/>
</svg>
