<svg width="18" height="21" viewBox="0 0 18 21" fill="none" xmlns="http://www.w3.org/2000/svg">
<path d="M17.1801 9.15573C16.4608 9.02557 15.7311 8.96197 15.0001 8.96573C14.5801 8.96573 14.1701 8.96573 13.7601 9.04573C13.2497 8.36461 12.5982 7.80177 11.8501 7.39573C12.4927 6.69398 12.8494 5.77721 12.8501 4.82573C12.8501 3.80199 12.4435 2.82019 11.7196 2.0963C10.9957 1.37241 10.0139 0.965729 8.99013 0.965729C7.9664 0.965729 6.98459 1.37241 6.2607 2.0963C5.53681 2.82019 5.13013 3.80199 5.13013 4.82573C5.13087 5.77721 5.48759 6.69398 6.13013 7.39573C5.38653 7.80389 4.73606 8.3624 4.22013 9.03573C3.83013 8.96573 3.42013 8.96573 3.00013 8.96573C2.26856 8.96857 1.5388 9.03887 0.820133 9.17573C0.587175 9.21832 0.376895 9.34221 0.226732 9.52534C0.0765696 9.70847 -0.0037292 9.93894 0.00013311 10.1757V18.4257C-0.000105472 18.5726 0.0320283 18.7178 0.0942493 18.8509C0.15647 18.984 0.24725 19.1017 0.360133 19.1957C0.472304 19.2903 0.603914 19.359 0.745627 19.3971C0.887339 19.4351 1.03568 19.4415 1.18013 19.4157C1.77854 19.2854 2.3879 19.2117 3.00013 19.1957C4.93723 19.1936 6.8323 19.7604 8.45013 20.8257L8.58013 20.8757C8.71278 20.9333 8.85555 20.9639 9.00013 20.9657C9.09558 20.9645 9.19018 20.9476 9.28013 20.9157H9.35013L9.48013 20.8657C11.1134 19.773 13.0351 19.1916 15.0001 19.1957C15.6111 19.1986 16.2204 19.2588 16.8201 19.3757C16.9646 19.4015 17.1129 19.3951 17.2546 19.3571C17.3964 19.319 17.528 19.2503 17.6401 19.1557C17.753 19.0617 17.8438 18.944 17.906 18.8109C17.9682 18.6778 18.0004 18.5326 18.0001 18.3857V10.1357C17.9993 9.90237 17.9168 9.67665 17.7671 9.49767C17.6173 9.3187 17.4097 9.19773 17.1801 9.15573ZM9.00013 2.96573C9.46858 3.00015 9.90666 3.21052 10.2264 3.55461C10.5461 3.8987 10.7238 4.35102 10.7238 4.82073C10.7238 5.29044 10.5461 5.74276 10.2264 6.08684C9.90666 6.43093 9.46858 6.64131 9.00013 6.67573C8.53169 6.64131 8.09361 6.43093 7.77387 6.08684C7.45414 5.74276 7.27642 5.29044 7.27642 4.82073C7.27642 4.35102 7.45414 3.8987 7.77387 3.55461C8.09361 3.21052 8.53169 3.00015 9.00013 2.96573ZM8.00013 18.2957C6.43281 17.5713 4.7268 17.1959 3.00013 17.1957C2.67013 17.1957 2.34013 17.1957 2.00013 17.2457V10.9657C2.8387 10.8719 3.68595 10.8887 4.52013 11.0157H4.63013C5.82173 11.2347 6.96361 11.6684 8.00013 12.2957V18.2957ZM9.00013 10.5657C8.55546 10.3092 8.09447 10.0821 7.62013 9.88573H7.56013C7.23013 9.75573 6.90013 9.62573 6.56013 9.52573C7.25445 8.9731 8.11281 8.66705 9.00013 8.65573C9.8851 8.66134 10.7432 8.96028 11.4401 9.50573C10.5912 9.77076 9.77321 10.1261 9.00013 10.5657ZM16.0001 17.2457C13.9468 17.0394 11.8756 17.3846 10.0001 18.2457V12.2457C11.0385 11.6345 12.1811 11.2209 13.3701 11.0257H13.5701C14.3741 10.9005 15.191 10.8804 16.0001 10.9657V17.2457Z" fill="#4C6072"/>
</svg>
