<svg width="22" height="22" viewBox="0 0 22 22" fill="none" xmlns="http://www.w3.org/2000/svg">
<path d="M13.4102 15.8673C12.728 16.3676 11.8829 16.5934 11.0421 16.5001C10.2023 16.5936 9.35809 16.3681 8.67683 15.8683C8.48904 15.6818 8.23503 15.5773 7.97039 15.5777C7.70575 15.5781 7.45203 15.6833 7.26478 15.8703C7.07752 16.0573 6.97197 16.3108 6.97123 16.5755C6.97049 16.8401 7.07462 17.0943 7.26083 17.2823C7.7779 17.7274 8.37887 18.0645 9.02828 18.2736C9.6777 18.4828 10.3624 18.5598 11.0421 18.5001C11.7218 18.5595 12.4065 18.4825 13.056 18.2735C13.7055 18.0646 14.3067 17.7279 14.8243 17.2833C14.9176 17.1905 14.9917 17.0803 15.0423 16.9588C15.093 16.8374 15.1192 16.7071 15.1194 16.5755C15.1196 16.4439 15.0939 16.3136 15.0437 16.192C14.9935 16.0703 14.9198 15.9598 14.8268 15.8667C14.7339 15.7736 14.6234 15.6997 14.5019 15.6494C14.3803 15.599 14.25 15.5731 14.1184 15.5732C13.9868 15.5732 13.8565 15.5992 13.735 15.6497C13.6135 15.7002 13.5031 15.7741 13.4102 15.8673L13.4102 15.8673ZM8.20056 14.0017C8.39834 14.0017 8.59166 13.943 8.75608 13.8331C8.9205 13.7231 9.04862 13.5669 9.12426 13.3842C9.19989 13.2014 9.21963 13.0003 9.18099 12.8064C9.14234 12.6124 9.04705 12.4342 8.90716 12.2944C8.76726 12.1546 8.58905 12.0594 8.39506 12.0209C8.20106 11.9824 8 12.0022 7.8173 12.078C7.6346 12.1537 7.47846 12.2819 7.36863 12.4464C7.25879 12.6109 7.2002 12.8043 7.20026 13.0021C7.20055 13.2672 7.30605 13.5214 7.4936 13.7088C7.68114 13.8963 7.93541 14.0016 8.20056 14.0017ZM14.2006 12.0017C14.0028 12.0017 13.8094 12.0603 13.6449 12.1701C13.4805 12.2799 13.3522 12.4361 13.2765 12.6188C13.2008 12.8015 13.1809 13.0026 13.2194 13.1965C13.2579 13.3905 13.3531 13.5688 13.4929 13.7086C13.6328 13.8485 13.8109 13.9438 14.0049 13.9825C14.1988 14.0211 14.3999 14.0014 14.5827 13.9257C14.7654 13.8501 14.9216 13.722 15.0316 13.5576C15.1415 13.3932 15.2002 13.1998 15.2003 13.0021C15.2 12.7369 15.0946 12.4828 14.9072 12.2953C14.7198 12.1077 14.4657 12.0022 14.2006 12.0017ZM22.0001 10.7804C22.0019 9.9873 21.7537 9.21384 21.2907 8.56994C20.8277 7.92603 20.1736 7.44445 19.4212 7.19366C18.6688 6.94286 17.8565 6.93561 17.0998 7.17295C16.3431 7.41028 15.6804 7.88012 15.2061 8.51566C14.2066 8.26121 13.1854 8.101 12.156 8.03715L13.0118 2.33215L15.0993 3.04199C15.1088 3.83612 15.4332 4.59399 16.0011 5.14914C16.569 5.7043 17.3341 6.01133 18.1282 6.00281C18.9223 5.99429 19.6806 5.6709 20.2365 5.10368C20.7924 4.53647 21.1004 3.77181 21.0928 2.97766V2.95518C21.0737 2.1697 20.7501 1.42238 20.1904 0.87101C19.6306 0.319635 18.8785 0.00735428 18.0928 0.000100085C17.642 0.00346886 17.1979 0.109181 16.7939 0.309261C16.3899 0.509341 16.0366 0.798562 15.7608 1.1551L12.5225 0.0538101C12.3839 0.00638436 12.2366 -0.00998394 12.091 0.00586481C11.9454 0.0217136 11.805 0.0693916 11.6799 0.145521C11.5547 0.22165 11.4479 0.324368 11.3668 0.446398C11.2858 0.568427 11.2326 0.706782 11.211 0.85166L10.1345 8.0271C9.00737 8.07645 7.88814 8.24015 6.79406 8.51566C6.21473 7.73423 5.35561 7.20716 4.3965 7.04476C3.4374 6.88237 2.45265 7.09724 1.64836 7.6444C0.84408 8.19156 0.282602 9.0286 0.0814457 9.98033C-0.119711 10.9321 0.0550466 11.9247 0.569141 12.7505C0.20067 13.4435 0.00541626 14.2153 6.13822e-05 15.0001C6.13822e-05 18.9249 4.83206 22.0001 11.0001 22.0001C17.1681 22.0001 22.0001 18.9249 22.0001 15.0001C21.9947 14.2156 21.7996 13.444 21.4314 12.7512C21.7988 12.1592 21.9956 11.4771 22.0001 10.7804ZM18.0928 2.0001C18.2906 2.0001 18.484 2.05875 18.6484 2.16863C18.8129 2.27851 18.941 2.43469 19.0167 2.61742C19.0924 2.80014 19.1122 3.00121 19.0736 3.19519C19.035 3.38917 18.9398 3.56735 18.7999 3.70721C18.6601 3.84706 18.4819 3.9423 18.2879 3.98089C18.0939 4.01947 17.8929 3.99967 17.7101 3.92398C17.5274 3.84829 17.3712 3.72012 17.2614 3.55567C17.1515 3.39122 17.0928 3.19788 17.0928 3.0001C17.0971 2.73623 17.2039 2.48437 17.3905 2.29776C17.5771 2.11114 17.829 2.00441 18.0928 2.0001ZM3.78033 9.0001C4.09111 9.00395 4.39534 9.09003 4.66205 9.24961C3.6968 9.66469 2.80316 10.2296 2.01416 10.9235C2.01016 10.8757 2.00006 10.8285 2.00006 10.7804C2.00066 10.3084 2.18842 9.85593 2.52216 9.5222C2.85589 9.18846 3.30836 9.0007 3.78033 9.0001ZM11.0001 20.0001C6.12115 20.0001 2.00006 17.7101 2.00006 15.0001C2.00006 12.2901 6.12115 10.0001 11.0001 10.0001C15.879 10.0001 20.0001 12.2901 20.0001 15.0001C20.0001 17.7101 15.879 20.0001 11.0001 20.0001ZM19.986 10.9236C19.197 10.2296 18.3033 9.6647 17.3381 9.24961C17.6048 9.09004 17.909 9.00395 18.2198 9.0001C18.6918 9.0007 19.1442 9.18846 19.478 9.5222C19.8117 9.85593 19.9995 10.3084 20.0001 10.7804C20.0001 10.8285 19.99 10.8757 19.986 10.9236Z" fill="#4C6072"/>
</svg>
