<svg width="22" height="15" viewBox="0 0 22 15" fill="none" xmlns="http://www.w3.org/2000/svg">
<path d="M6 8C6.59334 8 7.17336 7.82405 7.66671 7.49441C8.16006 7.16476 8.54458 6.69623 8.77164 6.14805C8.9987 5.59987 9.05811 4.99667 8.94236 4.41473C8.8266 3.83279 8.54088 3.29824 8.12132 2.87868C7.70176 2.45912 7.16721 2.1734 6.58527 2.05764C6.00333 1.94189 5.40013 2.0013 4.85195 2.22836C4.30377 2.45542 3.83524 2.83994 3.50559 3.33329C3.17595 3.82664 3 4.40666 3 5C3 5.79565 3.31607 6.55871 3.87868 7.12132C4.44129 7.68393 5.20435 8 6 8ZM6 4C6.19778 4 6.39112 4.05865 6.55557 4.16853C6.72002 4.27841 6.84819 4.43459 6.92388 4.61732C6.99957 4.80004 7.01937 5.00111 6.98079 5.19509C6.9422 5.38907 6.84696 5.56725 6.70711 5.70711C6.56725 5.84696 6.38907 5.9422 6.19509 5.98079C6.00111 6.01937 5.80004 5.99957 5.61732 5.92388C5.43459 5.84819 5.27841 5.72002 5.16853 5.55557C5.05865 5.39112 5 5.19778 5 5C5 4.73478 5.10536 4.48043 5.29289 4.29289C5.48043 4.10536 5.73478 4 6 4ZM19 2H11C10.7348 2 10.4804 2.10536 10.2929 2.29289C10.1054 2.48043 10 2.73478 10 3V9H2V1C2 0.734784 1.89464 0.48043 1.70711 0.292893C1.51957 0.105357 1.26522 0 1 0C0.734784 0 0.48043 0.105357 0.292893 0.292893C0.105357 0.48043 0 0.734784 0 1V14C0 14.2652 0.105357 14.5196 0.292893 14.7071C0.48043 14.8946 0.734784 15 1 15C1.26522 15 1.51957 14.8946 1.70711 14.7071C1.89464 14.5196 2 14.2652 2 14V11H20V14C20 14.2652 20.1054 14.5196 20.2929 14.7071C20.4804 14.8946 20.7348 15 21 15C21.2652 15 21.5196 14.8946 21.7071 14.7071C21.8946 14.5196 22 14.2652 22 14V5C22 4.20435 21.6839 3.44129 21.1213 2.87868C20.5587 2.31607 19.7956 2 19 2ZM20 9H12V4H19C19.2652 4 19.5196 4.10536 19.7071 4.29289C19.8946 4.48043 20 4.73478 20 5V9Z" fill="#4C6072"/>
</svg>
