<svg width="16" height="21" viewBox="0 0 16 21" fill="none" xmlns="http://www.w3.org/2000/svg">
<path d="M8.31 0.171507C8.14463 0.0597315 7.9496 0 7.75 0C7.5504 0 7.35537 0.0597315 7.19 0.171507C6.89 0.371507 0 5.17151 0 12.2515C0 14.3069 0.816515 16.2782 2.26992 17.7316C3.72333 19.185 5.69457 20.0015 7.75 20.0015C9.80543 20.0015 11.7767 19.185 13.2301 17.7316C14.6835 16.2782 15.5 14.3069 15.5 12.2515C15.5 5.05151 8.6 0.361507 8.31 0.171507ZM7.75 18.0015C6.22582 17.9989 4.76482 17.3922 3.68706 16.3145C2.60929 15.2367 2.00264 13.7757 2 12.2515C2 7.25151 6.21 3.48151 7.75 2.25151C9.3 3.46151 13.5 7.25151 13.5 12.2515C13.4974 13.7757 12.8907 15.2367 11.8129 16.3145C10.7352 17.3922 9.27418 17.9989 7.75 18.0015Z" fill="#4C6072"/>
</svg>
