<svg width="15" height="22" viewBox="0 0 15 22" fill="none" xmlns="http://www.w3.org/2000/svg">
<path d="M13.8301 8.44C13.7383 8.30429 13.6147 8.19319 13.4699 8.11647C13.3252 8.03975 13.1639 7.99975 13.0001 8H10.0001V6H12.2001C12.4653 6 12.7196 5.89464 12.9072 5.70711C13.0947 5.51957 13.2001 5.26522 13.2001 5V1C13.2001 0.734784 13.0947 0.48043 12.9072 0.292893C12.7196 0.105357 12.4653 0 12.2001 0H9.00006C7.46181 0 5.98655 0.61107 4.89884 1.69878C3.81113 2.78649 3.20006 4.26174 3.20006 5.8V8H1.00006C0.734845 8 0.480491 8.10536 0.292954 8.29289C0.105418 8.48043 6.10352e-05 8.73478 6.10352e-05 9V13C6.10352e-05 13.2652 0.105418 13.5196 0.292954 13.7071C0.480491 13.8946 0.734845 14 1.00006 14H3.20006V21C3.20006 21.2652 3.30542 21.5196 3.49295 21.7071C3.68049 21.8946 3.93484 22 4.20006 22H9.00006C9.26528 22 9.51963 21.8946 9.70717 21.7071C9.8947 21.5196 10.0001 21.2652 10.0001 21V14H11.4001C11.6003 14.0002 11.7961 13.9402 11.9619 13.8279C12.1277 13.7156 12.256 13.5561 12.3301 13.37L13.9301 9.37C13.9905 9.21858 14.0129 9.05468 13.9955 8.89259C13.9781 8.7305 13.9213 8.57512 13.8301 8.44ZM10.7201 12H9.00006C8.73484 12 8.48049 12.1054 8.29295 12.2929C8.10542 12.4804 8.00006 12.7348 8.00006 13V20H5.20006V13C5.20006 12.7348 5.0947 12.4804 4.90717 12.2929C4.71963 12.1054 4.46528 12 4.20006 12H2.00006V10H4.20006C4.46528 10 4.71963 9.89464 4.90717 9.70711C5.0947 9.51957 5.20006 9.26522 5.20006 9V5.8C5.2027 4.79299 5.6039 3.82798 6.31597 3.11591C7.02804 2.40384 7.99305 2.00264 9.00006 2H11.2001V4H10.4001C10.0615 3.95067 9.71637 3.97137 9.38612 4.06082C9.05586 4.15026 8.74747 4.30655 8.48006 4.52C8.31778 4.6899 8.19159 4.8909 8.10909 5.11089C8.0266 5.33087 7.98951 5.56529 8.00006 5.8V9C8.00006 9.26522 8.10542 9.51957 8.29295 9.70711C8.48049 9.89464 8.73484 10 9.00006 10H11.5201L10.7201 12Z" fill="#4C6072"/>
</svg>
