<svg width="20" height="21" viewBox="0 0 20 21" fill="none" xmlns="http://www.w3.org/2000/svg">
<path d="M19 2.96573H16V1.96573C16 1.70051 15.8946 1.44616 15.7071 1.25862C15.5196 1.07109 15.2652 0.965729 15 0.965729H5C4.73478 0.965729 4.48043 1.07109 4.29289 1.25862C4.10536 1.44616 4 1.70051 4 1.96573V2.96573H1C0.734784 2.96573 0.48043 3.07109 0.292893 3.25862C0.105357 3.44616 0 3.70051 0 3.96573V6.96573C0 8.02659 0.421427 9.04401 1.17157 9.79416C1.92172 10.5443 2.93913 10.9657 4 10.9657H5.54C6.44453 11.9749 7.66406 12.6481 9 12.8757V14.9657H8C7.20435 14.9657 6.44129 15.2818 5.87868 15.8444C5.31607 16.407 5 17.1701 5 17.9657V19.9657C5 20.2309 5.10536 20.4853 5.29289 20.6728C5.48043 20.8604 5.73478 20.9657 6 20.9657H14C14.2652 20.9657 14.5196 20.8604 14.7071 20.6728C14.8946 20.4853 15 20.2309 15 19.9657V17.9657C15 17.1701 14.6839 16.407 14.1213 15.8444C13.5587 15.2818 12.7956 14.9657 12 14.9657H11V12.8757C12.3359 12.6481 13.5555 11.9749 14.46 10.9657H16C17.0609 10.9657 18.0783 10.5443 18.8284 9.79416C19.5786 9.04401 20 8.02659 20 6.96573V3.96573C20 3.70051 19.8946 3.44616 19.7071 3.25862C19.5196 3.07109 19.2652 2.96573 19 2.96573ZM4 8.96573C3.46957 8.96573 2.96086 8.75501 2.58579 8.37994C2.21071 8.00487 2 7.49616 2 6.96573V4.96573H4V6.96573C4.0022 7.64744 4.12056 8.32379 4.35 8.96573H4ZM12 16.9657C12.2652 16.9657 12.5196 17.0711 12.7071 17.2586C12.8946 17.4462 13 17.7005 13 17.9657V18.9657H7V17.9657C7 17.7005 7.10536 17.4462 7.29289 17.2586C7.48043 17.0711 7.73478 16.9657 8 16.9657H12ZM14 6.96573C14 8.02659 13.5786 9.04401 12.8284 9.79416C12.0783 10.5443 11.0609 10.9657 10 10.9657C8.93913 10.9657 7.92172 10.5443 7.17157 9.79416C6.42143 9.04401 6 8.02659 6 6.96573V2.96573H14V6.96573ZM18 6.96573C18 7.49616 17.7893 8.00487 17.4142 8.37994C17.0391 8.75501 16.5304 8.96573 16 8.96573H15.65C15.8794 8.32379 15.9978 7.64744 16 6.96573V4.96573H18V6.96573Z" fill="#4C6072"/>
</svg>
