<svg width="20" height="20" viewBox="0 0 20 20" fill="none" xmlns="http://www.w3.org/2000/svg">
<path d="M10.0001 5C9.01115 5 8.04446 5.29324 7.22221 5.84265C6.39996 6.39206 5.7591 7.17295 5.38066 8.08658C5.00223 9.00021 4.90321 10.0055 5.09613 10.9755C5.28906 11.9454 5.76526 12.8363 6.46453 13.5355C7.16379 14.2348 8.0547 14.711 9.02461 14.9039C9.99451 15.0969 10.9998 14.9978 11.9135 14.6194C12.8271 14.241 13.608 13.6001 14.1574 12.7779C14.7068 11.9556 15.0001 10.9889 15.0001 10C15.0001 8.67392 14.4733 7.40215 13.5356 6.46447C12.5979 5.52678 11.3261 5 10.0001 5ZM10.0001 13C9.40672 13 8.8267 12.8241 8.33335 12.4944C7.84 12.1648 7.45548 11.6962 7.22842 11.1481C7.00136 10.5999 6.94195 9.99667 7.0577 9.41473C7.17346 8.83279 7.45918 8.29824 7.87874 7.87868C8.2983 7.45912 8.83285 7.1734 9.41479 7.05764C9.99673 6.94189 10.5999 7.0013 11.1481 7.22836C11.6963 7.45542 12.1648 7.83994 12.4945 8.33329C12.8241 8.82664 13.0001 9.40666 13.0001 10C13.0001 10.7956 12.684 11.5587 12.1214 12.1213C11.5588 12.6839 10.7957 13 10.0001 13ZM15.0001 4C14.8023 4 14.6089 4.05865 14.4445 4.16853C14.28 4.27841 14.1519 4.43459 14.0762 4.61732C14.0005 4.80004 13.9807 5.00111 14.0193 5.19509C14.0579 5.38907 14.1531 5.56725 14.293 5.70711C14.4328 5.84696 14.611 5.9422 14.805 5.98079C14.999 6.01937 15.2 5.99957 15.3827 5.92388C15.5655 5.84819 15.7217 5.72002 15.8315 5.55557C15.9414 5.39112 16.0001 5.19778 16.0001 5C16.0001 4.73478 15.8947 4.48043 15.7072 4.29289C15.5196 4.10536 15.2653 4 15.0001 4ZM19.9401 6.24C19.9235 5.38542 19.7612 4.53995 19.4601 3.74C19.1808 3.01207 18.7517 2.35099 18.2004 1.7997C17.6491 1.2484 16.988 0.819216 16.2601 0.54C15.4601 0.238899 14.6146 0.0765676 13.7601 0.0599999C12.7901 -5.58794e-08 12.4701 0 10.0001 0C7.53006 0 7.21006 -5.58794e-08 6.24006 0.0599999C5.38548 0.0765676 4.54001 0.238899 3.74006 0.54C3.01213 0.819216 2.35105 1.2484 1.79976 1.7997C1.24847 2.35099 0.819277 3.01207 0.540061 3.74C0.23896 4.53995 0.0766287 5.38542 0.060061 6.24C6.09793e-05 7.22 6.10352e-05 7.54 6.10352e-05 10C6.10352e-05 12.46 6.09793e-05 12.78 0.060061 13.76C0.0766287 14.6146 0.23896 15.4601 0.540061 16.26C0.819277 16.9879 1.24847 17.649 1.79976 18.2003C2.35105 18.7516 3.01213 19.1808 3.74006 19.46C4.54001 19.7611 5.38548 19.9234 6.24006 19.94C7.24006 19.94 7.53006 20 10.0001 20C12.4701 20 12.7901 20 13.7601 19.94C14.6146 19.9234 15.4601 19.7611 16.2601 19.46C16.988 19.1808 17.6491 18.7516 18.2004 18.2003C18.7517 17.649 19.1808 16.9879 19.4601 16.26C19.7612 15.4601 19.9235 14.6146 19.9401 13.76C19.9401 12.76 20.0001 12.46 20.0001 10C20.0001 7.54 20.0001 7.22 19.9401 6.24ZM17.9401 13.67C17.9225 14.3046 17.8044 14.9324 17.5901 15.53C17.4128 16.0023 17.1327 16.4293 16.7701 16.78C16.4215 17.1428 15.9937 17.4201 15.5201 17.59C14.9211 17.8131 14.2891 17.9348 13.6501 17.95C12.7101 17.95 12.4201 18 9.99006 18C7.56006 18 7.28006 18 6.34006 18C5.70208 17.9835 5.07081 17.8654 4.47006 17.65C3.99772 17.4728 3.57073 17.1927 3.22006 16.83C2.85722 16.4814 2.57998 16.0536 2.41006 15.58C2.18787 14.9842 2.06621 14.3557 2.05006 13.72C2.05006 12.72 2.05006 12.47 2.05006 10.05C2.05006 7.63 2.05006 7.34 2.05006 6.38C2.0673 5.74121 2.1889 5.10954 2.41006 4.51C2.58262 4.04063 2.85959 3.61662 3.22006 3.27C3.56864 2.90715 3.99647 2.62992 4.47006 2.46C5.06905 2.2369 5.70105 2.11523 6.34006 2.1C7.28006 2 7.57006 2 10.0001 2C12.4301 2 12.7201 2 13.6601 2C14.3022 2.01633 14.9373 2.13794 15.5401 2.36C16.0094 2.53256 16.4334 2.80953 16.7801 3.17C17.1429 3.51858 17.4201 3.94641 17.5901 4.42C17.8349 5.02856 17.9735 5.67458 18.0001 6.33C18.0001 7.33 18.0501 7.58 18.0501 10C18.0501 12.42 18.0001 12.71 18.0001 13.67H17.9401Z" fill="#4C6072"/>
</svg>
