<svg width="21" height="20" viewBox="0 0 21 20" fill="none" xmlns="http://www.w3.org/2000/svg">
<path d="M20.0317 8.98361C20.0345 8.27877 19.851 7.5857 19.4998 6.97459C19.1486 6.36348 18.6421 5.85602 18.0317 5.50361C18.0468 5.3306 18.0468 5.15661 18.0317 4.98361C18.0317 4.18796 17.7157 3.42489 17.153 2.86229C16.5904 2.29968 15.8274 1.98361 15.0317 1.98361H14.8517C14.6852 1.52192 14.4079 1.10814 14.0443 0.778553C13.6806 0.448966 13.2416 0.21364 12.7658 0.09321C12.29 -0.0272201 11.7919 -0.0290756 11.3152 0.0878065C10.8386 0.204689 10.3978 0.436738 10.0317 0.763606C9.6656 0.436738 9.22488 0.204689 8.7482 0.0878065C8.27151 -0.0290756 7.77344 -0.0272201 7.29764 0.09321C6.82184 0.21364 6.38286 0.448966 6.01918 0.778553C5.65551 1.10814 5.37825 1.52192 5.21172 1.98361H5.03172C4.23607 1.98361 3.47301 2.29968 2.9104 2.86229C2.34779 3.42489 2.03172 4.18796 2.03172 4.98361C2.01667 5.15661 2.01667 5.3306 2.03172 5.50361C1.46418 5.8244 0.983653 6.27905 0.631963 6.82798C0.280272 7.37691 0.0680808 8.00348 0.0138596 8.65315C-0.0403616 9.30282 0.0650308 9.95589 0.320863 10.5555C0.576694 11.1552 0.975211 11.6832 1.48172 12.0936C1.15399 12.7049 0.990837 13.3908 1.00827 14.0842C1.0257 14.7776 1.22312 15.4545 1.58115 16.0485C1.93917 16.6425 2.44551 17.1333 3.05045 17.4725C3.6554 17.8118 4.33816 17.9879 5.03172 17.9836H5.21172C5.37825 18.4453 5.65551 18.8591 6.01918 19.1887C6.38286 19.5182 6.82184 19.7536 7.29764 19.874C7.77344 19.9944 8.27151 19.9963 8.7482 19.8794C9.22488 19.7625 9.6656 19.5305 10.0317 19.2036C10.3978 19.5305 10.8386 19.7625 11.3152 19.8794C11.7919 19.9963 12.29 19.9944 12.7658 19.874C13.2416 19.7536 13.6806 19.5182 14.0443 19.1887C14.4079 18.8591 14.6852 18.4453 14.8517 17.9836H15.0317C15.7211 17.9792 16.3976 17.7968 16.9956 17.454C17.5937 17.1112 18.093 16.6197 18.4451 16.0271C18.7973 15.4344 18.9903 14.7609 19.0055 14.0717C19.0206 13.3825 18.8575 12.7011 18.5317 12.0936C18.9982 11.7202 19.375 11.247 19.6346 10.7088C19.8941 10.1706 20.0299 9.58111 20.0317 8.98361ZM9.03172 6.53361C8.81392 6.40904 8.58653 6.30203 8.35172 6.21361C8.09977 6.12874 7.82442 6.14743 7.58625 6.26558C7.34807 6.38373 7.16659 6.59165 7.08172 6.84361C6.99685 7.09556 7.01555 7.37091 7.1337 7.60908C7.25184 7.84725 7.45977 8.02874 7.71172 8.11361C8.09666 8.25277 8.42964 8.5067 8.66569 8.8411C8.90174 9.17551 9.0295 9.57429 9.03172 9.98361V11.5336C8.81392 11.409 8.58653 11.302 8.35172 11.2136C8.09977 11.1287 7.82442 11.1474 7.58625 11.2656C7.34807 11.3837 7.16659 11.5916 7.08172 11.8436C6.99685 12.0956 7.01555 12.3709 7.1337 12.6091C7.25184 12.8473 7.45977 13.0287 7.71172 13.1136C8.09666 13.2528 8.42964 13.5067 8.66569 13.8411C8.90174 14.1755 9.0295 14.5743 9.03172 14.9836V16.9836C9.03172 17.2488 8.92637 17.5032 8.73883 17.6907C8.55129 17.8783 8.29694 17.9836 8.03172 17.9836C7.83826 17.9823 7.64931 17.925 7.48779 17.8185C7.32627 17.712 7.19911 17.5609 7.12172 17.3836C7.2894 17.2852 7.44981 17.1749 7.60172 17.0536C7.70284 16.9696 7.78641 16.8664 7.84767 16.7501C7.90893 16.6337 7.94667 16.5065 7.95874 16.3755C7.97082 16.2446 7.95698 16.1126 7.91803 15.987C7.87908 15.8614 7.81577 15.7447 7.73172 15.6436C7.64768 15.5425 7.54454 15.4589 7.42819 15.3977C7.31185 15.3364 7.18458 15.2987 7.05365 15.2866C6.92272 15.2745 6.79069 15.2883 6.66511 15.3273C6.53952 15.3663 6.42284 15.4296 6.32172 15.5136C5.96065 15.8176 5.50371 15.9841 5.03172 15.9836C4.50129 15.9836 3.99258 15.7729 3.61751 15.3978C3.24244 15.0227 3.03172 14.514 3.03172 13.9836C3.03651 13.6072 3.14743 13.2398 3.35172 12.9236C3.57614 12.9639 3.80372 12.9839 4.03172 12.9836C4.29694 12.9836 4.55129 12.8782 4.73883 12.6907C4.92637 12.5032 5.03172 12.2488 5.03172 11.9836C5.03172 11.7184 4.92637 11.464 4.73883 11.2765C4.55129 11.089 4.29694 10.9836 4.03172 10.9836C3.79551 10.985 3.56125 10.9408 3.34172 10.8536C2.98207 10.7239 2.66713 10.4938 2.43421 10.1906C2.2013 9.88741 2.06017 9.52381 2.02755 9.14287C1.99493 8.76193 2.07218 8.37963 2.25015 8.04124C2.42812 7.70286 2.69936 7.42258 3.03172 7.23361C3.17382 7.36434 3.32782 7.48152 3.49172 7.58361C3.72246 7.71621 3.99643 7.75173 4.25335 7.68234C4.51028 7.61295 4.72911 7.44434 4.86172 7.21361C4.99433 6.98287 5.02985 6.7089 4.96046 6.45198C4.89107 6.19505 4.72246 5.97621 4.49172 5.84361C4.35095 5.76595 4.23355 5.652 4.15172 5.51361C4.05927 5.35305 4.01744 5.16833 4.03172 4.98361C4.03172 4.71839 4.13708 4.46404 4.32462 4.2765C4.51215 4.08896 4.76651 3.98361 5.03172 3.98361C5.10139 3.97389 5.17206 3.97389 5.24172 3.98361C5.29466 4.14428 5.35813 4.30128 5.43172 4.45361C5.49705 4.56819 5.58441 4.66872 5.68875 4.74941C5.7931 4.83009 5.91238 4.88934 6.03972 4.92373C6.16706 4.95812 6.29995 4.96698 6.43072 4.94979C6.5615 4.93261 6.68759 4.88973 6.80172 4.82361C7.02343 4.69021 7.1848 4.47608 7.25193 4.2262C7.31906 3.97632 7.28673 3.71015 7.16172 3.48361C7.07782 3.33021 7.03316 3.15844 7.03172 2.98361C7.03172 2.71839 7.13708 2.46404 7.32462 2.2765C7.51215 2.08896 7.76651 1.98361 8.03172 1.98361C8.29694 1.98361 8.55129 2.08896 8.73883 2.2765C8.92637 2.46404 9.03172 2.71839 9.03172 2.98361V6.53361ZM16.7217 10.8536C16.5022 10.9408 16.2679 10.985 16.0317 10.9836C15.7665 10.9836 15.5122 11.089 15.3246 11.2765C15.1371 11.464 15.0317 11.7184 15.0317 11.9836C15.0317 12.2488 15.1371 12.5032 15.3246 12.6907C15.5122 12.8782 15.7665 12.9836 16.0317 12.9836C16.2597 12.9839 16.4873 12.9639 16.7117 12.9236C16.916 13.2398 17.0269 13.6072 17.0317 13.9836C17.0317 14.514 16.821 15.0227 16.4459 15.3978C16.0709 15.7729 15.5622 15.9836 15.0317 15.9836C14.5597 15.9841 14.1028 15.8176 13.7417 15.5136C13.5375 15.3439 13.2742 15.2622 13.0098 15.2866C12.7454 15.311 12.5015 15.4394 12.3317 15.6436C12.162 15.8478 12.0803 16.1111 12.1047 16.3755C12.1291 16.64 12.2575 16.8839 12.4617 17.0536C12.6136 17.1749 12.774 17.2852 12.9417 17.3836C12.8643 17.5609 12.7372 17.712 12.5757 17.8185C12.4141 17.925 12.2252 17.9823 12.0317 17.9836C11.7665 17.9836 11.5122 17.8783 11.3246 17.6907C11.1371 17.5032 11.0317 17.2488 11.0317 16.9836V14.9836C11.0339 14.5743 11.1617 14.1755 11.3978 13.8411C11.6338 13.5067 11.9668 13.2528 12.3517 13.1136C12.6037 13.0287 12.8116 12.8473 12.9297 12.6091C13.0479 12.3709 13.0666 12.0956 12.9817 11.8436C12.8969 11.5916 12.7154 11.3837 12.4772 11.2656C12.239 11.1474 11.9637 11.1287 11.7117 11.2136C11.4769 11.302 11.2495 11.409 11.0317 11.5336V9.98361C11.0339 9.57429 11.1617 9.17551 11.3978 8.8411C11.6338 8.5067 11.9668 8.25277 12.3517 8.11361C12.6037 8.02874 12.8116 7.84725 12.9297 7.60908C13.0479 7.37091 13.0666 7.09556 12.9817 6.84361C12.8969 6.59165 12.7154 6.38373 12.4772 6.26558C12.239 6.14743 11.9637 6.12874 11.7117 6.21361C11.4769 6.30203 11.2495 6.40904 11.0317 6.53361V2.98361C11.0317 2.71839 11.1371 2.46404 11.3246 2.2765C11.5122 2.08896 11.7665 1.98361 12.0317 1.98361C12.2969 1.98361 12.5513 2.08896 12.7388 2.2765C12.9264 2.46404 13.0317 2.71839 13.0317 2.98361C13.0303 3.15844 12.9856 3.33021 12.9017 3.48361C12.8352 3.59714 12.7917 3.7227 12.7738 3.85307C12.7559 3.98344 12.7639 4.11606 12.7973 4.24334C12.8308 4.37061 12.889 4.49003 12.9687 4.59476C13.0484 4.69948 13.148 4.78744 13.2617 4.85361C13.3759 4.91972 13.5019 4.96261 13.6327 4.97979C13.7635 4.99698 13.8964 4.98812 14.0237 4.95373C14.1511 4.91934 14.2703 4.86009 14.3747 4.77941C14.479 4.69872 14.5664 4.59819 14.6317 4.48361C14.7066 4.32155 14.7701 4.15448 14.8217 3.98361C14.8914 3.97389 14.9621 3.97389 15.0317 3.98361C15.2969 3.98361 15.5513 4.08896 15.7388 4.2765C15.9264 4.46404 16.0317 4.71839 16.0317 4.98361C16.0302 5.17964 15.9711 5.3709 15.8617 5.53361C15.7799 5.66337 15.6663 5.77008 15.5317 5.84361C15.301 5.97621 15.1324 6.19505 15.063 6.45198C14.9936 6.7089 15.0291 6.98287 15.1617 7.21361C15.2943 7.44434 15.5132 7.61295 15.7701 7.68234C16.027 7.75173 16.301 7.71621 16.5317 7.58361C16.7113 7.48651 16.879 7.36907 17.0317 7.23361C17.3652 7.41924 17.6386 7.69643 17.8197 8.03244C18.0007 8.36845 18.0819 8.74926 18.0535 9.12988C18.0251 9.51051 17.8884 9.87506 17.6595 10.1805C17.4306 10.4859 17.1191 10.7195 16.7617 10.8536H16.7217Z" fill="#4C6072"/>
</svg>
