<svg width="20" height="21" viewBox="0 0 20 21" fill="none" xmlns="http://www.w3.org/2000/svg">
<path d="M8.21 13.7157C8.30296 13.8095 8.41356 13.8839 8.53542 13.9346C8.65728 13.9854 8.78799 14.0115 8.92 14.0115C9.05201 14.0115 9.18272 13.9854 9.30458 13.9346C9.42644 13.8839 9.53704 13.8095 9.63 13.7157L13.71 9.63573C13.8983 9.44742 14.0041 9.19203 14.0041 8.92573C14.0041 8.65943 13.8983 8.40403 13.71 8.21573C13.5217 8.02742 13.2663 7.92164 13 7.92164C12.7337 7.92164 12.4783 8.02742 12.29 8.21573L8.92 11.5957L7.71 10.3757C7.5217 10.1874 7.2663 10.0816 7 10.0816C6.7337 10.0816 6.4783 10.1874 6.29 10.3757C6.1017 10.564 5.99591 10.8194 5.99591 11.0857C5.99591 11.352 6.1017 11.6074 6.29 11.7957L8.21 13.7157ZM19 0.965729H1C0.734784 0.965729 0.48043 1.07109 0.292893 1.25862C0.105357 1.44616 0 1.70051 0 1.96573V19.9657C0 20.2309 0.105357 20.4853 0.292893 20.6728C0.48043 20.8604 0.734784 20.9657 1 20.9657H19C19.2652 20.9657 19.5196 20.8604 19.7071 20.6728C19.8946 20.4853 20 20.2309 20 19.9657V1.96573C20 1.70051 19.8946 1.44616 19.7071 1.25862C19.5196 1.07109 19.2652 0.965729 19 0.965729ZM18 18.9657H2V2.96573H18V18.9657Z" fill="#4C6072"/>
</svg>
