<svg width="23" height="19" viewBox="0 0 23 19" fill="none" xmlns="http://www.w3.org/2000/svg">
<path d="M22.0014 1.3086C22.0015 1.13197 21.9548 0.958463 21.8661 0.805749C21.7773 0.653035 21.6497 0.526571 21.4962 0.439236C21.3426 0.3519 21.1687 0.306814 20.9921 0.308569C20.8155 0.310323 20.6424 0.358856 20.4907 0.449224C19.9054 0.79761 19.2752 1.06441 18.6177 1.24222C17.6787 0.436457 16.481 -0.00447226 15.2437 3.42044e-05C13.8863 0.00159684 12.5826 0.530627 11.6079 1.47542C10.6332 2.4202 10.0639 3.70679 10.0201 5.06351C7.34403 4.63678 4.91868 3.24004 3.2065 1.13965C3.10334 1.01449 2.97159 0.915968 2.82236 0.8524C2.67314 0.788832 2.51081 0.762082 2.34908 0.774404C2.18744 0.787714 2.03148 0.840197 1.89467 0.927315C1.75787 1.01443 1.64435 1.13356 1.56392 1.2744C1.15145 1.99422 0.914554 2.80116 0.872472 3.62971C0.830391 4.45826 0.984311 5.28506 1.32173 6.04295L1.31978 6.0449C1.16813 6.13831 1.04297 6.26906 0.956288 6.42465C0.869601 6.58024 0.824282 6.75547 0.824663 6.93358C0.822827 7.08051 0.83164 7.22738 0.851033 7.37303C0.95317 8.6313 1.51082 9.80909 2.41939 10.6855C2.35776 10.803 2.32014 10.9315 2.30874 11.0636C2.29733 11.1957 2.31237 11.3288 2.35298 11.4551C2.7491 12.6892 3.59148 13.7311 4.71529 14.3769C3.57353 14.8184 2.34071 14.9724 1.12544 14.8252C0.900515 14.797 0.672673 14.846 0.479291 14.9643C0.285909 15.0826 0.13847 15.2631 0.061158 15.4762C-0.0161536 15.6893 -0.0187467 15.9223 0.0538038 16.1371C0.126354 16.3519 0.269741 16.5356 0.460443 16.6582C2.55054 18.0044 4.98412 18.7201 7.47021 18.7197C10.2895 18.7514 13.0402 17.8505 15.2944 16.1572C17.5487 14.4638 19.1802 12.0729 19.935 9.3564C20.2881 8.17304 20.4683 6.94488 20.4702 5.70996C20.4702 5.64453 20.4702 5.57715 20.4692 5.50977C20.9913 4.9467 21.3958 4.28508 21.6589 3.56367C21.922 2.84227 22.0384 2.0756 22.0014 1.3086ZM18.6948 4.52051C18.5296 4.71586 18.446 4.96731 18.4614 5.22266C18.4712 5.38766 18.4702 5.55366 18.4702 5.70996C18.4681 6.7535 18.3152 7.79126 18.0161 8.79102C17.3996 11.1024 16.0252 13.1401 14.1132 14.5776C12.2011 16.0152 9.86189 16.7695 7.47021 16.7197C6.61109 16.72 5.75493 16.619 4.91943 16.419C5.98484 16.0756 6.98102 15.5463 7.86181 14.8555C8.02404 14.7277 8.14276 14.5529 8.2017 14.3551C8.26064 14.1572 8.25689 13.9459 8.19099 13.7502C8.12508 13.5545 8.00024 13.3841 7.83359 13.2622C7.66694 13.1403 7.46666 13.0729 7.26021 13.0693C6.42904 13.0564 5.63534 12.7214 5.04634 12.1348C5.19576 12.1065 5.3442 12.0713 5.49166 12.0293C5.70767 11.9678 5.89671 11.8354 6.02832 11.6534C6.15994 11.4715 6.22648 11.2505 6.21724 11.0261C6.20799 10.8017 6.12349 10.5869 5.97735 10.4164C5.8312 10.2458 5.63192 10.1294 5.41158 10.0859C4.92912 9.99066 4.47513 9.78541 4.0849 9.48613C3.69467 9.18685 3.37871 8.80161 3.16158 8.36035C3.34231 8.38502 3.52419 8.40034 3.7065 8.40625C3.92309 8.40953 4.1351 8.34383 4.31188 8.21866C4.48866 8.09349 4.62105 7.91534 4.6899 7.70996C4.75588 7.50273 4.75249 7.27963 4.68023 7.0745C4.60798 6.86936 4.4708 6.69338 4.28951 6.57324C3.84966 6.28022 3.48936 5.88267 3.24087 5.4162C2.99238 4.94974 2.86347 4.42892 2.86568 3.9004C2.86568 3.834 2.86763 3.76759 2.87154 3.70216C5.1128 5.79242 8.01986 7.02461 11.0805 7.18165C11.235 7.18774 11.3889 7.15864 11.5305 7.09655C11.6721 7.03447 11.7977 6.94101 11.8979 6.82325C11.9971 6.70436 12.0673 6.56406 12.1031 6.41341C12.1388 6.26276 12.1391 6.10587 12.1039 5.95509C12.0467 5.71646 12.0176 5.47197 12.017 5.22657C12.0179 4.37111 12.3582 3.55094 12.9631 2.94604C13.568 2.34114 14.3881 2.00091 15.2436 2C15.6837 1.99883 16.1193 2.0889 16.5229 2.26455C16.9265 2.4402 17.2893 2.6976 17.5883 3.02051C17.7037 3.1446 17.8488 3.23711 18.01 3.28925C18.1712 3.34139 18.3431 3.35143 18.5092 3.3184C18.92 3.23846 19.3249 3.13079 19.7211 2.99614C19.4509 3.54912 19.1055 4.06209 18.6948 4.52051Z" fill="#4C6072"/>
</svg>
