<svg width="51" height="51" viewBox="0 0 51 51" fill="none" xmlns="http://www.w3.org/2000/svg">
<g clip-path="url(#clip0)">
<path d="M50.4634 26.6877C50.4634 39.3841 40.17 49.676 27.4729 49.676C14.7757 49.676 4.48309 39.3841 4.48309 26.6877C4.48309 13.9929 14.7757 3.70102 27.4729 3.70102C40.17 3.70102 50.4634 13.9937 50.4634 26.6877Z" fill="#FFB400"/>
<path d="M44.8231 22.5931C44.8231 26.0635 42.0098 28.8767 38.5387 28.8767C35.0676 28.8767 32.2536 26.0635 32.2536 22.5931C32.2536 19.122 35.0676 16.3087 38.5387 16.3087C42.0098 16.3087 44.8231 19.122 44.8231 22.5931Z" fill="#5995ED"/>
<path d="M24.9942 22.5931C24.9942 26.0635 22.181 28.8767 18.7099 28.8767C15.2387 28.8767 12.4247 26.0635 12.4247 22.5931C12.4247 19.122 15.2387 16.3087 18.7099 16.3087C22.181 16.3087 24.9942 19.122 24.9942 22.5931Z" fill="#5995ED"/>
<path d="M34.9469 27.8682C30.8492 27.8682 27.5156 24.5346 27.5156 20.4377C27.5156 16.3408 30.8492 13.0072 34.9469 13.0072C39.0438 13.0072 42.3773 16.3408 42.3773 20.4377C42.3773 24.5346 39.0438 27.8682 34.9469 27.8682ZM34.9469 15.2994C32.113 15.2994 29.8078 17.6046 29.8078 20.4377C29.8078 23.2708 32.113 25.576 34.9469 25.576C37.7808 25.576 40.0852 23.2708 40.0852 20.4377C40.0852 17.6046 37.7808 15.2994 34.9469 15.2994Z" fill="#333333"/>
<path d="M15.118 27.8682C11.0204 27.8682 7.6868 24.5346 7.6868 20.4377C7.6868 16.3408 11.0204 13.0072 15.118 13.0072C19.2149 13.0072 22.5485 16.3408 22.5485 20.4377C22.5485 24.5346 19.2149 27.8682 15.118 27.8682ZM15.118 15.2994C12.2834 15.2994 9.97897 17.6046 9.97897 20.4377C9.97897 23.2708 12.2834 25.576 15.118 25.576C17.9512 25.576 20.2563 23.2708 20.2563 20.4377C20.2563 17.6046 17.9512 15.2994 15.118 15.2994Z" fill="#333333"/>
<path d="M28.0826 21.2331H21.206C20.5734 21.2331 20.06 20.7204 20.06 20.087C20.06 19.4544 20.5734 18.9409 21.206 18.9409H28.0826C28.7152 18.9409 29.2287 19.4544 29.2287 20.087C29.2287 20.7204 28.7152 21.2331 28.0826 21.2331Z" fill="#333333"/>
<path d="M41.232 21.5845C40.7988 21.5845 40.3839 21.337 40.1906 20.9175C39.9255 20.3422 40.1769 19.6622 40.7514 19.397L45.3495 17.2791C45.9233 17.0132 46.6049 17.2653 46.87 17.8407C47.1351 18.416 46.8838 19.096 46.3092 19.3611L41.7111 21.4783C41.556 21.5502 41.3925 21.5845 41.232 21.5845Z" fill="#333333"/>
<path d="M8.75647 21.5845C8.59602 21.5845 8.43251 21.5502 8.27741 21.4783L3.68007 19.3611C3.1055 19.096 2.85412 18.416 3.11848 17.8407C3.38361 17.2653 4.06439 17.0132 4.63972 17.2791L9.23707 19.397C9.81164 19.6622 10.063 20.3422 9.79865 20.9175C9.60534 21.337 9.19046 21.5845 8.75647 21.5845Z" fill="#333333"/>
<path d="M24.2592 41.159C21.0043 41.159 18.3362 39.9204 18.1811 39.8471C17.6096 39.5759 17.3659 38.8928 17.6364 38.3213C17.9076 37.749 18.5899 37.5052 19.1614 37.775C19.2355 37.8093 23.677 39.8425 27.5164 38.2655C29.639 37.3937 31.232 35.5477 32.2528 32.7788C32.4713 32.1843 33.1345 31.8818 33.7244 32.0995C34.318 32.3188 34.6229 32.9774 34.4036 33.5711C33.1498 36.975 31.1197 39.2702 28.3699 40.3926C26.9892 40.9557 25.5757 41.159 24.2592 41.159Z" fill="#333333"/>
<path d="M24.6 48.6674C11.2909 48.6674 0.463379 37.8399 0.463379 24.5338C0.463379 11.2277 11.2909 0.400269 24.6 0.400269C37.9084 0.400269 48.7351 11.227 48.7351 24.5338C48.7351 37.8407 37.9084 48.6674 24.6 48.6674ZM24.6 2.69244C12.5546 2.69244 2.75556 12.4907 2.75556 24.5338C2.75556 36.5777 12.5546 46.3752 24.6 46.3752C36.6439 46.3752 46.4429 36.5777 46.4429 24.5338C46.4429 12.4907 36.6439 2.69244 24.6 2.69244Z" fill="#333333"/>
</g>
<defs>
<clipPath id="clip0">
<rect width="50" height="50" fill="white" transform="translate(0.463379 0.0380859)"/>
</clipPath>
</defs>
</svg>
