<svg width="50" height="51" viewBox="0 0 50 51" fill="none" xmlns="http://www.w3.org/2000/svg">
<g clip-path="url(#clip0)">
<path d="M50 27.0559C50 39.7466 39.7101 50.035 27.0171 50.035C14.3248 50.035 4.03488 39.7466 4.03488 27.0559C4.03488 14.3645 14.3248 4.07608 27.0171 4.07608C39.7101 4.07608 50 14.3645 50 27.0559Z" fill="#FFB400"/>
<path d="M38.8357 32.4164C38.8357 37.842 34.655 40.9427 29.4969 40.9427H24.8279C19.6713 40.9427 15.4907 37.842 15.4907 32.4164H38.8357Z" fill="#8F3985"/>
<path d="M26.6248 40.1676H21.9558C16.1651 40.1676 11.4543 35.821 11.4543 30.4784C11.4543 29.8365 11.9752 29.3156 12.6171 29.3156H35.9628C36.6047 29.3156 37.1256 29.8365 37.1256 30.4784C37.1256 35.821 32.4147 40.1676 26.6248 40.1676ZM13.8822 31.6412C14.5031 35.1513 17.8868 37.842 21.9558 37.842H26.6248C30.693 37.842 34.0775 35.1513 34.6977 31.6412H13.8822Z" fill="#333333"/>
<path d="M34.8814 17.8559C34.8814 19.3908 33.6372 20.6358 32.1015 20.6358C30.5659 20.6358 29.3209 19.3908 29.3209 17.8559C29.3209 16.3203 30.5659 15.0761 32.1015 15.0761C33.6372 15.0761 34.8814 16.3203 34.8814 17.8559Z" fill="#333333"/>
<path d="M18.8961 17.8559C18.8961 19.3908 17.6512 20.6358 16.1163 20.6358C14.5806 20.6358 13.3357 19.3908 13.3357 17.8559C13.3357 16.3203 14.5806 15.0761 16.1163 15.0761C17.6512 15.0761 18.8961 16.3203 18.8961 17.8559Z" fill="#333333"/>
<path d="M24.145 48.3249C10.831 48.3249 0 37.4947 0 24.1831C0 10.8714 10.831 0.0411987 24.145 0.0411987C37.4581 0.0411987 48.2899 10.8714 48.2899 24.1831C48.2899 37.4947 37.4581 48.3249 24.145 48.3249ZM24.145 2.36678C12.1132 2.36678 2.32558 12.1536 2.32558 24.1831C2.32558 36.2133 12.1132 46.0001 24.145 46.0001C36.176 46.0001 45.9643 36.2133 45.9643 24.1831C45.9643 12.1536 36.176 2.36678 24.145 2.36678Z" fill="#333333"/>
</g>
<defs>
<clipPath id="clip0">
<rect width="50" height="50" fill="white" transform="translate(0 0.0380859)"/>
</clipPath>
</defs>
</svg>
