<svg width="51" height="51" viewBox="0 0 51 51" fill="none" xmlns="http://www.w3.org/2000/svg">
<g clip-path="url(#clip0)">
<path d="M50.2105 26.6416C50.2105 38.9834 40.2053 48.9879 27.8628 48.9879C15.5202 48.9879 5.51503 38.9842 5.51503 26.6416C5.51503 14.3013 15.5202 4.29688 27.8628 4.29688C40.2053 4.29688 50.2105 14.3021 50.2105 26.6416Z" fill="#FFB400"/>
<path d="M13.6872 23.1679C13.2475 23.1679 12.8308 22.9057 12.6548 22.4742C12.4231 21.9045 12.6964 21.2539 13.266 21.0214L16.6766 19.6318L13.2304 17.7134C12.6927 17.4141 12.4996 16.736 12.7989 16.1982C13.0982 15.6612 13.7756 15.4666 14.314 15.7667L19.7879 18.8133C20.1615 19.0213 20.3835 19.4261 20.3575 19.8539C20.3315 20.2817 20.0634 20.656 19.6661 20.8187L14.1075 23.0847C13.9694 23.1419 13.8268 23.1679 13.6872 23.1679Z" fill="#333333"/>
<path d="M34.6371 23.7175C34.4656 23.7175 34.291 23.6774 34.1284 23.5935L28.6545 20.7771C28.2891 20.5892 28.0566 20.2156 28.0499 19.8049C28.0433 19.3941 28.2631 19.0131 28.6226 18.8133L34.0964 15.7667C34.6349 15.4681 35.3123 15.6612 35.6116 16.1982C35.9101 16.7359 35.7178 17.414 35.18 17.7134L31.5236 19.7484L35.1481 21.6126C35.6948 21.8941 35.9101 22.5656 35.6287 23.1129C35.4311 23.4977 35.0412 23.7175 34.6371 23.7175Z" fill="#333333"/>
<path d="M15.5195 37.1689C15.2001 37.1689 14.883 37.0323 14.6631 36.7679C14.2687 36.2955 14.3326 35.5929 14.8057 35.1992L17.7372 32.7564C18.1443 32.4177 18.7332 32.4118 19.1462 32.7423L21.4754 34.6043L23.5832 32.7713C24.0021 32.4066 24.626 32.4066 25.0456 32.7713L27.1668 34.6162L29.6208 32.7289C30.0471 32.4007 30.6495 32.4244 31.049 32.7876L33.7369 35.2304C34.1922 35.6441 34.2257 36.349 33.812 36.8042C33.3983 37.2595 32.6934 37.293 32.2381 36.8793L30.2402 35.0633L27.8026 36.9379C27.383 37.261 26.7932 37.2432 26.3929 36.8956L24.314 35.0886L22.2359 36.8956C21.8296 37.2491 21.2295 37.261 20.8091 36.9246L18.4651 35.0499L16.2317 36.9105C16.0238 37.085 15.7705 37.1689 15.5195 37.1689Z" fill="#333333"/>
<path d="M23.6723 48.0075C10.7356 48.0075 0.21051 37.4831 0.21051 24.5479C0.21051 11.6126 10.7356 1.08829 23.6723 1.08829C36.6098 1.08829 47.1349 11.6126 47.1349 24.5479C47.1349 37.4831 36.6098 48.0075 23.6723 48.0075ZM23.6723 3.31645C11.9641 3.31645 2.43867 12.8411 2.43867 24.5479C2.43867 36.2554 11.9641 45.7793 23.6723 45.7793C35.3813 45.7793 44.9067 36.2554 44.9067 24.5479C44.9067 12.8411 35.3813 3.31645 23.6723 3.31645Z" fill="#333333"/>
</g>
<defs>
<clipPath id="clip0">
<rect width="50" height="50" fill="white" transform="translate(0.21051 0.0380859)"/>
</clipPath>
</defs>
</svg>
