<svg width="89" height="181" viewBox="0 0 89 181" fill="none" xmlns="http://www.w3.org/2000/svg">
<path d="M88.9987 157.443V177.445C88.9987 178.875 87.8366 180.038 86.4053 180.038H6.31714C4.88312 180.038 3.7197 178.875 3.7197 177.445V157.443C3.7197 147.306 10.3816 138.373 20.0969 135.48L24.7026 134.108C27.0404 133.413 28.9675 131.898 30.2079 129.934C31.1776 128.401 31.7257 126.595 31.7257 124.688V118.609L58.718 110.825V124.008C58.718 126.518 59.6685 128.856 61.2756 130.618C62.4528 131.913 63.9816 132.901 65.7411 133.428L72.6255 135.48C82.3423 138.373 88.9987 147.306 88.9987 157.443Z" fill="#FFDBA9"/>
<path d="M72.6255 135.479L65.7425 133.427C63.983 132.901 62.4542 131.913 61.2756 130.618C59.6699 128.854 58.718 126.518 58.718 124.008V110.825L31.7257 118.609V122.742L49.2856 117.677V130.861C49.2856 133.371 50.2361 135.708 51.8418 137.471C53.0204 138.766 54.5492 139.754 56.3087 140.281L63.1931 142.333C72.9085 145.226 79.5663 154.16 79.5663 164.295V180.038H86.4053C87.8366 180.038 88.9987 178.875 88.9987 177.445V157.443C88.9987 147.306 82.3423 138.373 72.6255 135.479Z" fill="#FFC473"/>
<path d="M41.0908 119.241H40.5908C23.8124 119.241 10.2098 105.639 10.2098 88.8596V24.9577H71.4717V88.861C71.4717 105.639 57.8691 119.241 41.0908 119.241Z" fill="#FFDBA9"/>
<path d="M74.109 84.6647H71.4717V63.7807H74.109C79.8286 63.7807 84.4658 68.4179 84.4658 74.1375V74.3078C84.4658 80.0288 79.8286 84.6647 74.109 84.6647Z" fill="#FFC473"/>
<path d="M50.5864 11.1051V36.0178C50.5864 39.085 51.8047 42.0259 53.9736 44.1947L57.7991 48.0202C60.3127 50.5338 61.7248 53.9431 61.7248 57.4979V59.5143C61.7248 61.87 63.6354 63.7807 65.9911 63.7807H71.4717V25.492C71.4717 17.5472 65.0296 11.1051 57.0848 11.1051H50.5864Z" fill="#715539"/>
<path d="M12.7688 37.4436H38.7488C45.2871 37.4436 50.5864 32.1429 50.5864 25.606V11.1051C46.7307 3.77017 41.9822 1.36777 39.8381 0.518899C28.473 -3.97959 0.395592 22.2435 0.201917 22.4839C0.0741737 22.6418 0 22.8438 0 23.058V24.6734C0 31.7254 5.71686 37.4436 12.7688 37.4436Z" fill="#A17852"/>
<path d="M25.8165 70.264C25.8165 71.9453 24.4525 73.3079 22.7712 73.3079C21.09 73.3079 19.7274 71.9453 19.7274 70.264C19.7274 68.5828 21.09 67.2188 22.7712 67.2188C24.4525 67.2188 25.8165 68.5828 25.8165 70.264Z" fill="#57555C"/>
<path d="M50.1729 70.264C50.1729 71.9453 48.8103 73.3079 47.129 73.3079C45.4477 73.3079 44.0851 71.9453 44.0851 70.264C44.0851 68.5828 45.4477 67.2188 47.129 67.2188C48.8103 67.2188 50.1729 68.5828 50.1729 70.264Z" fill="#57555C"/>
<path d="M88.9987 157.443V167.198H72.8604V180.038H20.3634V167.198H3.7197V157.443C3.7197 147.306 10.3816 138.373 20.0969 135.48L24.7026 134.108C27.0404 133.413 28.9675 131.898 30.2079 129.934C34.2572 131.573 39.7886 133.125 46.4093 133.165C52.0973 133.197 57.1013 132.107 61.2756 130.618C62.4528 131.913 63.983 132.901 65.7425 133.428L72.6255 135.48C82.3423 138.373 88.9987 147.306 88.9987 157.443Z" fill="#5995ED"/>
<path d="M72.6255 135.479L65.7424 133.427C63.9829 132.901 62.4541 131.913 61.2755 130.618C57.8855 131.828 53.9461 132.774 49.5383 133.068C49.9188 134.725 50.7209 136.239 51.8431 137.471C53.0203 138.766 54.5505 139.754 56.31 140.281L63.1931 142.333C72.9098 145.226 79.5662 154.16 79.5662 164.295V167.198H89V157.443C88.9986 147.306 82.3422 138.373 72.6255 135.479Z" fill="#357DE9"/>
<path d="M64.4664 121.578C64.3785 121.713 64.2879 121.846 64.1945 121.992C63.0214 123.78 61.2811 126.295 58.7523 128.715C57.4598 129.956 55.9585 131.171 54.2209 132.248C52.8748 133.09 51.3831 133.846 49.7361 134.469C49.4202 134.589 49.1015 134.702 48.7787 134.806C47.0728 135.383 45.3242 135.772 43.5605 135.989C41.7501 136.218 39.926 136.262 38.1197 136.142C36.2805 136.022 34.4509 135.732 32.6735 135.285C30.7972 134.814 28.973 134.167 27.2313 133.369C25.366 132.509 23.5996 131.472 21.9774 130.279C21.7892 130.144 21.6079 130.007 21.4266 129.865C19.5983 128.449 17.961 126.835 16.5352 125.054C10.3527 117.348 8.07121 106.594 10.7524 96.1409C12.7881 95.5063 16.3649 94.9981 19.9816 93.1122C21.8757 92.1218 23.1532 91.1054 24.0968 90.0972C25.5157 88.5697 27.539 87.7525 29.6227 87.7525H40.0743C41.4246 87.7525 42.7528 88.1041 43.9135 88.7909C45.6401 89.8101 47.8529 90.8952 50.5232 91.7359C52.6825 92.4117 54.681 92.7853 56.4186 92.9844C58.1892 93.1836 59.8581 92.1575 60.4748 90.4886C61.4844 87.7744 62.4445 84.7855 63.2797 81.5301C64.9925 74.8655 65.7288 68.8245 65.9897 63.782H71.4717C71.4511 67.1858 71.3852 76.2185 71.4717 84.666C71.6599 103.271 70.3907 112.476 64.4664 121.578Z" fill="#A17852"/>
<path d="M71.4717 63.7394C71.4648 62.7958 71.4676 62.3823 71.4786 62.3823C71.4827 62.3823 71.4786 62.8686 71.4717 63.7394Z" fill="#57555C"/>
<path d="M35.3204 104.737C31.7751 104.737 29.0444 103.492 27.3618 102.435C26.0899 101.634 25.708 99.9541 26.5074 98.6821C27.3082 97.4102 28.9881 97.0283 30.2587 97.8277C31.1584 98.3937 33.0237 99.3401 35.4934 99.292C37.6802 99.2535 39.3628 98.4747 40.3889 97.8291C41.6594 97.0283 43.3407 97.4088 44.1415 98.6807C44.9423 99.9527 44.5605 101.633 43.2885 102.433C41.6759 103.448 39.0304 104.672 35.5896 104.733C35.4989 104.735 35.4096 104.737 35.3204 104.737Z" fill="#644B32"/>
<path d="M21.9774 103.271V130.279C21.7878 130.144 21.6065 130.007 21.4252 129.865C19.5969 128.449 17.9596 126.835 16.5338 125.054V103.27C16.5338 101.764 17.7536 100.55 19.2549 100.55C20.7576 100.55 21.9774 101.766 21.9774 103.271Z" fill="#715539"/>
<path d="M32.6721 112.254V135.285C30.7972 134.814 28.9717 134.167 27.2314 133.369V112.254C27.2314 110.749 28.4497 109.533 29.9524 109.533C31.4538 109.533 32.6721 110.749 32.6721 112.254Z" fill="#715539"/>
<path d="M43.5605 112.254V135.989C41.7502 136.218 39.9247 136.262 38.1184 136.142V112.254C38.1184 110.749 39.3382 109.533 40.8395 109.533C42.3449 109.533 43.5605 110.749 43.5605 112.254Z" fill="#715539"/>
<path d="M54.2195 103.271V132.248C52.8734 133.09 51.3831 133.844 49.7362 134.469C49.4202 134.589 49.1002 134.702 48.7774 134.806V103.27C48.7774 101.764 49.9971 100.55 51.4985 100.55C53.0012 100.55 54.2195 101.766 54.2195 103.271Z" fill="#715539"/>
<path d="M64.1931 103.271V121.992C63.0214 123.78 61.2797 126.295 58.751 128.716V103.271C58.751 101.766 59.9707 100.55 61.472 100.55C62.9747 100.55 64.1931 101.766 64.1931 103.271Z" fill="#715539"/>
</svg>
