<svg width="452" height="133" viewBox="0 0 452 133" fill="none" xmlns="http://www.w3.org/2000/svg">
<path d="M0 10C0 4.47715 4.47715 0 10 0H442C447.523 0 452 4.47715 452 10V123C452 128.523 447.523 133 442 133H9.99999C4.47714 133 0 128.523 0 123V10Z" fill="#541388" fill-opacity="0.02"/>
<path d="M0.5 10C0.5 4.7533 4.7533 0.5 10 0.5H442C447.247 0.5 451.5 4.75329 451.5 10V123C451.5 128.247 447.247 132.5 442 132.5H9.99999C4.75329 132.5 0.5 128.247 0.5 123V10Z" stroke="#541388" stroke-opacity="0.15"/>
</svg>
